Patient4_TMGait_0pt7_02_right_11_GRF.mot
version=1
nRows=65
nColumns=19
inDegrees=no
endheader
time	F1x	F1y	F1z	M1x	M1y	M1z	F2x	F2y	F2z	M2x	M2y	M2z	EC1x	EC1y	EC1z	EC2x	EC2y	EC2z
11.66	19.9287	719.9361	51.5415	-250.7286	-49.8199	764.9631	-20.9301	-16.674	-16.4845	1.2097	11.9623	-17.078	-0.0592	0.0182	-0.0073	-0.0462	0.0165	0.9585
11.6716	10.9564	712.1181	55.4604	-247.8749	-54.8935	747.7586	-14.0762	-10.0902	-11.0087	1.2446	7.986	-10.1734	-0.0592	0.0182	-0.0073	-0.0462	0.0165	0.9585
11.6831	4.185	704.6151	58.4761	-245.037	-58.4646	731.1388	-8.305	-4.4996	-6.3987	1.2917	4.6597	-4.2651	-0.0592	0.0182	-0.0073	-0.0462	0.0165	0.9585
11.6947	-0.005849	698.5492	60.4914	-242.6114	-60.396	716.6038	-3.9197	-0.22077	-2.9036	1.345	2.1483	0.28451	-0.0592	0.0182	-0.0073	-0.0462	0.0165	0.9585
11.7063	-1.806	694.804	61.617	-240.9309	-60.8795	705.0921	-0.91354	2.7772	-0.50401	1.4034	0.43684	3.4985	-0.0592	0.0182	-0.0073	-0.0462	0.0165	0.9585
11.7179	-1.6667	693.919	62.0963	-240.213	-60.2875	697.0552	0.92781	4.6484	0.96435	1.4528	-0.59451	5.511	-0.0592	0.0182	-0.0073	-0.0462	0.0165	0.9585
11.7294	-0.12498	696.0648	62.1972	-240.5518	-59.0241	692.4709	1.8585	5.6427	1.7233	1.4851	-1.1037	6.581	-0.0592	0.0182	-0.0073	-0.0462	0.0165	0.9585
11.741	2.3341	701.063	62.105	-241.9217	-57.3904	690.9813	2.1638	5.9605	1.985	1.4801	-1.2505	6.9108	-0.0592	0.0182	-0.0073	-0.0462	0.0165	0.9585
11.7526	5.3813	708.4881	61.9884	-244.2011	-55.6185	691.9922	2.0568	5.7739	1.9303	1.416	-1.1593	6.6813	-0.0592	0.0182	-0.0073	-0.0462	0.0165	0.9585
11.7641	8.7707	717.6775	61.887	-247.1753	-53.7975	694.7033	1.729	5.168	1.6998	1.2613	-0.9346	5.9626	-0.0592	0.0182	-0.0073	-0.0462	0.0165	0.9585
11.7757	12.4085	727.8497	61.8611	-250.5676	-51.9913	698.2447	1.2923	4.1724	1.3915	0.98062	-0.64395	4.7933	-0.0592	0.0182	-0.0073	-0.0462	0.0165	0.9585
11.7873	16.2727	738.2136	61.897	-254.0847	-50.1824	701.7992	0.84951	2.7464	1.0672	0.53123	-0.33863	3.1136	-0.0592	0.0182	-0.0073	-0.0462	0.0165	0.9585
11.7989	20.3471	748.0216	62.0482	-257.4402	-48.4158	704.6205	0.46813	0.87692	0.77336	-0.11096	-0.062069	0.90953	-0.0592	0.0182	-0.0073	-0.0462	0.0165	0.9585
11.8104	24.6386	756.6953	62.3293	-260.3986	-46.6994	706.1953	0.2383	-1.4517	0.53949	-0.95432	0.13216	-1.8331	-0.0592	0.0182	-0.0073	-0.0462	0.0165	0.9585
11.822	29.1171	763.7469	62.7897	-262.7603	-45.0808	706.1299	0.23345	-4.097	0.40159	-1.9456	0.17258	-4.9223	-0.0592	0.0182	-0.0073	-0.0462	0.0165	0.9585
11.8336	33.7211	768.8295	63.4494	-264.3797	-43.5941	704.2008	0.57307	-6.7359	0.39257	-2.9548	-0.02905	-7.9858	-0.0592	0.0182	-0.0073	-0.0462	0.0165	0.9585
11.8451	38.4077	771.6731	64.3295	-265.1462	-42.2687	700.279	1.3496	-8.7486	0.55551	-3.7315	-0.57242	-10.2953	-0.0592	0.0182	-0.0073	-0.0462	0.0165	0.9585
11.8567	43.1098	772.1068	65.4201	-264.9925	-41.1218	694.332	2.7037	-9.133	0.9359	-3.8704	-1.5675	-10.709	-0.0592	0.0182	-0.0073	-0.0462	0.0165	0.9585
11.8683	47.7563	770.0789	66.6925	-263.9029	-40.1539	686.4153	4.6961	-6.4292	1.5853	-2.7851	-3.1027	-7.5355	-0.0592	0.0182	-0.0073	-0.0462	0.0165	0.9585
11.8799	52.2618	765.6464	68.0775	-261.91	-39.342	676.6828	7.37	1.2813	2.5477	0.2932	-5.234	1.4401	-0.0592	0.0182	-0.0073	-0.0462	0.0165	0.9585
11.8914	56.4799	758.867	69.4733	-259.0634	-38.6498	665.262	10.5765	16.2931	3.8346	6.2751	-7.9039	18.8843	-0.0592	0.0182	-0.0073	-0.0462	0.0165	0.9585
11.903	60.2638	749.6847	70.6866	-255.3881	-37.97	652.2023	13.9501	40.9531	5.3905	16.0897	-10.8806	47.5103	-0.0592	0.0182	-0.0073	-0.0462	0.0165	0.9585
11.9146	63.4604	737.7687	71.4649	-250.8229	-37.1539	637.3028	16.7327	77.1345	7.0412	30.4681	-13.6457	89.5034	-0.0592	0.0182	-0.0073	-0.0462	0.0165	0.9585
11.9261	65.9079	722.4284	71.4655	-245.1859	-35.9849	620.032	17.6975	125.269	8.4335	49.5694	-15.2976	145.3599	-0.0592	0.0182	-0.0073	-0.0462	0.0165	0.9585
11.9377	67.4662	702.6011	70.3304	-238.1628	-34.2327	599.5387	15.1688	183.3306	9.0587	72.5674	-14.6281	212.7362	-0.0592	0.0182	-0.0073	-0.0462	0.0165	0.9585
11.9493	67.9874	677.0444	67.7228	-229.3661	-31.6887	574.8053	8.1676	246.1334	8.3486	97.374	-10.6306	285.5664	-0.0592	0.0182	-0.0073	-0.0462	0.0165	0.9585
11.9609	67.3192	644.6106	63.467	-218.4196	-28.2805	544.8709	-2.1848	306.1562	5.2951	120.9688	-2.7093	354.9899	-0.0592	0.0182	-0.0073	-0.0462	0.0165	0.9585
11.9724	65.3519	604.5759	57.6495	-205.0597	-24.1376	509.1184	-13.5677	357.9151	-0.47477	141.1597	8.5192	414.3175	-0.0592	0.0182	-0.0073	-0.0462	0.0165	0.9585
11.984	61.99	556.9414	50.649	-189.2279	-19.6031	467.5468	-24.4294	401.2141	-7.9978	157.8585	21.3582	462.9961	-0.0592	0.0182	-0.0073	-0.0462	0.0165	0.9585
11.9956	57.2568	502.3516	43.1097	-171.0677	-15.179	420.6656	-33.8924	439.3398	-16.7537	172.3767	34.853	504.6112	-0.0592	0.0182	-0.0073	-0.0462	0.0165	0.9585
12.0071	51.2513	442.155	35.6487	-150.9604	-11.3021	369.5761	-41.5976	476.4034	-25.5282	186.3876	47.5424	543.893	-0.0592	0.0182	-0.0073	-0.0462	0.0165	0.9585
12.0187	44.0933	378.2354	28.7569	-129.4914	-8.2941	315.7697	-47.2556	514.9627	-33.6352	200.9515	58.5569	583.8181	-0.0592	0.0182	-0.0073	-0.0462	0.0165	0.9585
12.0303	35.9746	313.0562	22.7201	-107.4654	-6.2924	261.2366	-50.7941	555.4078	-40.5488	216.2638	67.2965	624.9069	-0.0592	0.0182	-0.0073	-0.0462	0.0165	0.9585
12.0419	27.2373	249.4447	17.6609	-85.844	-5.2621	208.2421	-52.1541	596.5731	-46.215	231.8738	73.7083	665.868	-0.0592	0.0182	-0.0073	-0.0462	0.0165	0.9585
12.0534	18.4326	190.3335	13.5814	-65.6442	-5.0124	159.1516	-51.5988	636.6993	-50.9762	247.0563	78.2677	704.8808	-0.0592	0.0182	-0.0073	-0.0462	0.0165	0.9585
12.065	10.3693	138.1848	10.3595	-47.7397	-5.167	115.9028	-49.4343	673.8579	-55.1546	261.0161	81.4859	739.9462	-0.0592	0.0182	-0.0073	-0.0462	0.0165	0.9585
12.0766	3.8051	94.4799	7.8349	-32.6746	-5.3465	79.6459	-46.1805	706.3323	-59.2182	273.0332	84.0587	769.4254	-0.0592	0.0182	-0.0073	-0.0462	0.0165	0.9585
12.0881	-0.83249	59.6771	5.7898	-20.6452	-5.2334	50.693	-42.2576	732.8011	-63.2109	282.5805	86.2366	792.0565	-0.0592	0.0182	-0.0073	-0.0462	0.0165	0.9585
12.0997	-3.5317	33.4601	4.0713	-11.5681	-4.7119	28.8073	-38.1477	752.5585	-67.2151	289.3762	88.2864	807.3118	-0.0592	0.0182	-0.0073	-0.0462	0.0165	0.9585
12.1113	-4.5604	15.0045	2.6058	-5.1748	-3.8268	13.3096	-34.0784	765.4594	-70.8813	293.4002	89.9678	815.1857	-0.0592	0.0182	-0.0073	-0.0462	0.0165	0.9585
12.1229	-4.46	3.1818	1.4016	-1.0788	-2.7726	3.3146	-30.2522	771.9034	-73.9683	294.8444	91.1082	816.307	-0.0592	0.0182	-0.0073	-0.0462	0.0165	0.9585
12.1344	-3.7545	-3.4411	0.55342	1.2133	-1.8139	-2.3423	-26.6731	772.6196	-76.0661	294.0529	91.3139	811.5527	-0.0592	0.0182	-0.0073	-0.0462	0.0165	0.9585
12.146	-2.8378	-6.3381	-0.0091132	2.2098	-1.0214	-4.8599	-23.4074	768.6087	-77.0059	291.4556	90.4421	802.1016	-0.0592	0.0182	-0.0073	-0.0462	0.0165	0.9585
12.1576	-1.92	-6.857	-0.31266	2.3779	-0.45411	-5.3576	-20.4181	760.9716	-76.763	287.5199	88.4719	789.1371	-0.0592	0.0182	-0.0073	-0.0462	0.0165	0.9585
12.1691	-1.1424	-6.0089	-0.45625	2.0709	-0.073624	-4.6735	-17.7484	751.0285	-75.5495	282.7653	85.6449	774.0791	-0.0592	0.0182	-0.0073	-0.0462	0.0165	0.9585
12.1807	-0.5378	-4.5618	-0.47848	1.5546	0.14037	-3.468	-15.3862	740.1402	-73.6808	277.7279	82.295	758.3087	-0.0592	0.0182	-0.0073	-0.0462	0.0165	0.9585
12.1923	-0.1189	-2.9778	-0.44172	0.99117	0.24373	-2.1127	-13.3579	729.8055	-71.422	272.9811	78.7179	743.3418	-0.0592	0.0182	-0.0073	-0.0462	0.0165	0.9585
12.2039	0.1589	-1.5476	-0.37714	0.48118	0.27568	-0.88237	-11.6267	721.3928	-68.9947	269.0555	75.1364	730.4947	-0.0592	0.0182	-0.0073	-0.0462	0.0165	0.9585
12.2154	0.30257	-0.37201	-0.30289	0.063585	0.25855	0.15519	-10.1583	716.0972	-66.5067	266.404	71.6545	720.9135	-0.0592	0.0182	-0.0073	-0.0462	0.0165	0.9585
12.227	0.38308	0.51904	-0.2418	-0.2525	0.23358	0.95274	-8.8832	714.6107	-64.1084	265.2883	68.3949	715.2037	-0.0592	0.0182	-0.0073	-0.0462	0.0165	0.9585
12.2386	0.38613	1.1615	-0.18134	-0.47716	0.18804	1.5605	-7.763	717.0998	-61.9173	265.761	65.4445	713.4598	-0.0592	0.0182	-0.0073	-0.0462	0.0165	0.9585
12.2501	0.37069	1.5924	-0.14338	-0.62637	0.15255	1.9795	-6.7204	723.185	-60.0882	267.6639	62.9128	715.2178	-0.0592	0.0182	-0.0073	-0.0462	0.0165	0.9585
12.2617	0.30998	1.8778	-0.10971	-0.72282	0.10436	2.2765	-5.7115	732.0714	-58.6955	270.6825	60.8416	719.6357	-0.0592	0.0182	-0.0073	-0.0462	0.0165	0.9585
12.2733	0.24582	2.0421	-0.0887	-0.78133	0.060132	2.4327	-4.661	742.6748	-57.7674	274.3982	59.2258	725.5969	-0.0592	0.0182	-0.0073	-0.0462	0.0165	0.9585
12.2849	0.14757	2.1179	-0.062266	-0.8119	-0.0044753	2.5033	-3.5062	753.7686	-57.2491	278.3517	57.9822	731.8606	-0.0592	0.0182	-0.0073	-0.0462	0.0165	0.9585
12.2964	0.050747	2.103	-0.032383	-0.81264	-0.079735	2.4599	-2.1431	764.1668	-57.0266	282.1093	56.9659	737.2396	-0.0592	0.0182	-0.0073	-0.0462	0.0165	0.9585
12.308	-0.093693	1.9924	0.00063987	-0.77435	-0.17445	2.3192	-0.48464	772.8549	-56.9831	285.3032	56.0316	740.7483	-0.0592	0.0182	-0.0073	-0.0462	0.0165	0.9585
12.3196	-0.24317	1.7288	0.048844	-0.67424	-0.29224	1.9945	1.5242	779.0629	-56.9821	287.657	55.0317	741.6713	-0.0592	0.0182	-0.0073	-0.0462	0.0165	0.9585
12.3311	-0.44481	1.2453	0.10944	-0.48753	-0.44027	1.4272	3.881	782.3443	-56.9283	289.008	53.8758	739.6229	-0.0592	0.0182	-0.0073	-0.0462	0.0165	0.9585
12.3427	-0.64658	0.44769	0.19611	-0.18361	-0.61725	0.47868	6.5562	782.6352	-56.7213	289.3289	52.476	734.605	-0.0592	0.0182	-0.0073	-0.0462	0.0165	0.9585
12.3543	-0.86289	-0.73604	0.28716	0.26511	-0.80249	-0.90556	9.5028	780.181	-56.343	288.6984	50.8217	726.9259	-0.0592	0.0182	-0.0073	-0.0462	0.0165	0.9585
12.3659	-1.0125	-2.3854	0.37262	0.88473	-0.95927	-2.8389	12.6449	775.4454	-55.8072	287.2678	48.9426	717.1161	-0.0592	0.0182	-0.0073	-0.0462	0.0165	0.9585
12.3774	-1.0614	-4.4592	0.41724	1.6625	-1.0295	-5.2477	15.9038	768.9584	-55.2102	285.2059	46.9469	705.7655	-0.0592	0.0182	-0.0073	-0.0462	0.0165	0.9585
12.389	-0.86886	-6.8249	0.38863	2.5436	-0.92283	-7.9941	19.1619	761.206	-54.67	282.6635	44.9711	693.4204	-0.0592	0.0182	-0.0073	-0.0462	0.0165	0.9585
12.4006	-0.33557	-9.1065	0.23441	3.3883	-0.53052	-10.6212	22.3234	752.578	-54.3236	279.7546	43.1689	680.521	-0.0592	0.0182	-0.0073	-0.0462	0.0165	0.9585
